/* XPM */
static char * mp_xpm[] = {
"48 48 10 1",
" 	c None",
".	c #CC00CC",
"+	c #B5835A",
"@	c #0080FF",
"#	c #8000FF",
"$	c #00FF00",
"%	c #663300",
"&	c #FFFF00",
"*	c #CC0000",
"=	c #000000",
"                                                ",
"                                                ",
"                                                ",
"                                                ",
"                                                ",
"                                                ",
"                                       ..       ",
"                   +++++++++++++       ...      ",
"                ++++++++++++++++++     ...      ",
"               +++++++++++@+++++####  ....      ",
"             +++++++++++@@@@@++###### ....      ",
"            ++++++$$++++@@@@@@+######+....      ",
"           +++++$$$$$++@@@@@@@########.....     ",
"           +++++$$$$$$++@@@@@@#######++%...     ",
"          ++++++$$$$$$++@@@@@++######+%%%..     ",
"         +++++++$$$$$$+++@@@++++####+%%%%%      ",
"        ++++++++$$$$$$+++++++++++++++%%%%       ",
"       ++++++++++$$$++++++++++++++++%%%%++      ",
"       +++++&&+++++++++++++++++++++%%%%+++      ",
"      ++++&&&&&+++++++++++++++++++%%%%%+++      ",
"      ++++&&&&&+++++++++++++++++++%%%%+++       ",
"      ++++&&&&&++++++++++++++++++%%%%++++       ",
"     +++++&&&&&+++++++++++++++++%%%%+++++       ",
"     ++++++&&&++++++++++++++++++%%%%++++        ",
"     ++++++++++++++++++++++++++%%%%+++++        ",
"    ++++****++++++++++++++++++%%%%+++++         ",
"    +++*****++++++++===++++++%%%%+++++          ",
"    +++*****+++++++=====+++++%%%%++++           ",
"    +++*****++++++======++++%%%%+++             ",
"    +++++**+++++++=====++++%%%%++               ",
"    ++++++++++++++===+++++%%%%                  ",
"    +++++++++++++++=++    %%%%                  ",
"    +++++++++++++++++    %%%%                   ",
"     ++++++++++++++++   %%%%                    ",
"     +++++++++++++++    %%%                     ",
"      +++++++++++++    %%%%                     ",
"        ++++++++++    %%%%                      ",
"           ++++      %%%%                       ",
"                     %%%                        ",
"                    %%%%                        ",
"                   %%%%                         ",
"                   %%%                          ",
"                                                ",
"                                                ",
"                                                ",
"                                                ",
"                                                ",
"                                                "};
